<?xml version="1.0" encoding="utf-8"?>
<!-- Generator: Adobe Illustrator 24.0.2, SVG Export Plug-In . SVG Version: 6.00 Build 0)  -->
<svg version="1.1" id="Capa_1" xmlns="http://www.w3.org/2000/svg" xmlns:xlink="http://www.w3.org/1999/xlink" x="0px" y="0px"
	 viewBox="0 0 900 900" style="enable-background:new 0 0 900 900;" xml:space="preserve">
<style type="text/css">
	.st0{fill:#FFFFFF;}
</style>
<path class="st0" d="M657,878.9c-21.4-4.3-36.8-17.5-51.6-32.5c-48.8-49.5-98.1-98.5-147.4-147.5c-5.9-5.9-8.9-12.2-9-20.5
	c-0.1-9.7-1.3-19.3-2-29.7c-12.3,3.3-24.1,6.8-36,9.5C244,695.7,78.4,596.5,32.7,431.9c-0.5-1.9-1-3.7-1.5-5.6
	c-2.1-9.4,2.4-17.9,10.9-20.5c8.8-2.8,17.8,1.9,21,11.4c4.7,13.6,8,27.7,13.9,40.8c46.4,102.7,125.8,160.8,237.8,173.6
	c42,4.8,82.8-1.6,122.6-15.4c5.3-1.8,7.4-4.3,6.8-10.1c-1.3-11.8-1.8-23.7-2.7-36.6c-77.3,31.6-152.3,29.2-224.5-12.4
	c-46-26.5-79.3-65-100.6-113.8c-42.4-97.1-15.8-211.4,65.2-281c80.9-69.5,197.9-78.5,287.5-21.8c51.6,32.7,86.9,78.3,104.4,136.9
	c17.6,58.5,12.7,115.9-12.2,172.6c14.3,1.1,27.7,2.3,41.2,2.8c1.8,0.1,4.6-3.4,5.5-5.8c15.6-41.1,21.5-83.8,16.6-127.3
	c-11-97.6-59.3-172.1-144.2-221.4C322.1,6.3,114,92.2,65.4,268.7c-0.8,2.9-1.4,5.9-2.5,8.8c-3.3,8.9-12.1,13.5-20.6,10.9
	c-8.6-2.7-13.4-11.2-11.1-20.4c9-35.8,23.3-69.3,44.6-99.4c68.3-96.4,162-144.1,279.8-139.9C510.6,34,640,156.3,657.2,310.4
	c5.2,46.9,0.8,92.8-14.1,137.6c-0.7,2.1-1.2,4.2-2.1,7.2c11.2,0.8,22,1,32.6,2.7c5.3,0.9,11.4,3.4,15.2,7.1
	c53.7,53.2,107.3,106.6,160.5,160.3c28.9,29.1,28.6,71.2-0.4,100.3c-43.7,44-87.8,87.7-131.5,131.7c-11.3,11.4-25.2,17.7-40.4,21.5
	C670.3,878.9,663.6,878.9,657,878.9z M479,504.5c-6.2-5.7-12.2-10.7-17.5-16.2c-7.2-7.5-7.2-17-0.5-23.8c6.4-6.5,16.6-6.5,23.8,0.4
	c5.6,5.4,10.6,11.3,16,16.9c61.8-68.9,73.6-192.4-6.6-278.1c-80.8-86.3-214.8-89.9-298.9-9.1c-85,81.7-87.6,215.2-5.6,299.1
	C273,578.9,401.8,574.3,479,504.5z M502.8,528.1c-9.6,10.1-18.1,18.7-26.3,27.7c-1.4,1.6-2.1,4.5-2,6.7c2.4,36.2,4.9,72.3,7.6,108.5
	c0.2,3,1.9,6.4,4,8.6c51.6,51.8,103.2,103.5,155,155c15.3,15.2,36.5,15.2,52-0.2c44.6-44.2,89.1-88.7,133.3-133.3
	c15.2-15.4,15-36.6-0.3-52c-51.5-51.8-103.3-103.4-155-155c-2-2-5.1-3.7-7.8-3.9c-36.2-2.6-72.3-4.9-108.5-7.1
	c-2.5-0.1-5.7,0.5-7.5,2c-7.3,6.3-14.2,13-22.7,21c5.5,4.8,10.1,8,13.7,12.1c6.1,6.9,5.5,16.3-0.8,22.5c-6.1,6.1-15.8,6.5-22.5,0.5
	C510.9,537.9,507.7,533.6,502.8,528.1z"/>
<path class="st0" d="M37.9,330.6c8.7-0.2,15.9,6.6,16.3,15.4c0.4,9.4-6.8,17.5-15.9,17.7c-8.9,0.2-16.4-6.9-16.8-15.9
	C21.1,338.4,28.4,330.8,37.9,330.6z"/>
<path class="st0" d="M323.8,221.2c0-7.6-0.2-14.5,0-21.3c0.3-11.4,7.1-18.8,16.8-18.7c9.5,0.2,16,7.3,16.4,18.3c0.2,6.9,0,13.7,0,21
	c8.5,0.6,16.2,0.7,23.8,1.6c31.8,4,55.8,31.6,55.4,63.5c-0.1,10.3-6.4,17.5-15.7,18c-9,0.5-16.3-6.4-17.5-16.5
	c-2.7-23.2-13.2-32.7-36.4-32.7c-18,0-36-0.1-54,0c-22.8,0.1-33.8,12.3-35.1,34.9c-1.9,32.2,14,44.9,43,43
	c17.1-1.1,34.3-0.4,51.5-0.2c36,0.4,63.6,27.6,64,63.7c0.1,10.4,0,21.3-2.7,31.2c-7.4,27.3-32,44.9-61.4,45.7c-4.6,0.1-9.3,0-14.9,0
	c0,7.9,0.2,14.7,0,21.5c-0.4,11.4-7.3,18.8-17,18.5c-9.5-0.3-15.8-7.4-16.1-18.5c-0.2-6.9,0-13.7,0-20.9c-9.1-0.6-17.5-0.7-25.6-1.8
	c-29.8-4-53.7-31.7-53.6-61.7c0-10.3,6.3-17.5,15.6-18c8.9-0.5,16,5.9,17.4,15.5c3.6,23.6,13.4,32,37.1,32c17.2,0,34.4,0,51.5,0
	c25.5,0,37-11.5,36.6-37.2c-0.1-6.8-0.8-14-3.5-20.1c-5.2-11.7-15.4-16.9-28.2-17c-20.2-0.1-40.4,0-60.7,0
	c-38.1-0.2-65.7-27.3-65.9-65.3c0-11-0.1-22.4,2.7-32.9c7.3-27.5,32-45,62.1-46C313.9,221.1,318.3,221.2,323.8,221.2z"/>
<path class="st0" d="M608.3,536.1c22.2,0.9,42.8,13,54.1,38.2c11.2,25.1,7.2,48.7-10.5,69.7c-15.1,18-33,31.2-58.1,30.6
	c-25-0.6-44.4-11.5-56.5-33.4c-12.1-21.8-12.1-44.6,1.7-65.5C554,553.1,573.5,536,608.3,536.1z M594,641.5
	c12,0.1,19.6-4.3,32.5-18.8c9.3-10.4,11.3-24.2,5.2-36.2c-5.9-11.7-17.9-18.1-31.5-17.1c-13.3,1-31.8,16.8-36.3,30.7
	C557.3,620.7,572.3,641.3,594,641.5z"/>
<path class="st0" d="M702.7,687.8c16.9,0,33.7-0.1,50.6,0c11.5,0.1,18.6,6.6,18.5,16.6c0,10.1-7,16.5-18.7,16.5
	c-34,0.1-68,0.1-102,0c-11.5,0-18.9-6.5-19.1-16.2c-0.2-10,7.4-16.9,19.2-17C668.5,687.8,685.6,687.8,702.7,687.8z"/>
<path class="st0" d="M720.2,652.8c0,9.1-7.3,16.5-16.2,16.5c-8.9,0-16.6-7.4-16.8-16.2c-0.2-9.1,7.8-17.1,16.8-16.9
	C713.1,636.5,720.2,643.8,720.2,652.8z"/>
<path class="st0" d="M701.7,740.7c9,0.2,16.3,7.6,16.2,16.5c-0.1,9-7.7,16.5-16.5,16.4c-9.2-0.1-16.8-8-16.5-17.2
	C685.2,747.3,692.4,740.5,701.7,740.7z"/>
</svg>
