<?xml version="1.0" encoding="utf-8"?>
<!-- Generator: Adobe Illustrator 24.0.2, SVG Export Plug-In . SVG Version: 6.00 Build 0)  -->
<svg version="1.1" id="Capa_1" xmlns="http://www.w3.org/2000/svg" xmlns:xlink="http://www.w3.org/1999/xlink" x="0px" y="0px"
	 viewBox="0 0 900 900" style="enable-background:new 0 0 900 900;" xml:space="preserve">
<style type="text/css">
	.st0{fill:#FFFFFF;}
</style>
<path class="st0" d="M418.9,35.4c16.7,0,33.4,0,50,0c2.1,0.5,4.3,1.2,6.4,1.4c66.8,4.7,129.2,23.8,186.2,58.7
	C772.1,163.3,840.2,261,864.1,388.8c3,16,4.5,32.3,6.7,48.4c0,16.7,0,33.4,0,50c-0.7,6-1.4,12-2,18c-10.1,90.4-44,170.5-104.6,238.5
	C683.7,834,582.5,882.7,461.8,888.5c-84.2,4.1-163.4-15.5-235.4-59.5C115.6,761.5,47.6,663.6,23.6,535.7c-3-16-4.5-32.3-6.6-48.5
	c0-16.7,0-33.4,0-50c0.7-6,1.4-12,2-18c10.2-91.9,45.3-172.9,107.2-241.6C192,104.7,273.4,59.2,370.3,42
	C386.4,39.2,402.7,37.6,418.9,35.4z M808.5,462.2C808.3,261.5,645.4,98.4,444.2,97.6C244,96.9,79.1,261.6,79.2,462.3
	C79.4,663,242.4,826.1,443.5,826.9C643.7,827.6,808.6,662.9,808.5,462.2z"/>
<path class="st0" d="M454.1,462.2c3.9,0,6.8,0,9.8,0c41.4,0,82.8,0,124.2,0c12.8,0,22.6,5.5,28.6,16.8c5.6,10.4,5,20.9-1.2,30.9
	c-5.3,8.5-13.1,13.4-23.2,14.2c-2.2,0.2-4.4,0.3-6.7,0.3c-53,0-106.1,0.1-159.2,0c-22,0-34.3-12.3-34.4-33.9
	c-0.1-70.8-0.3-141.7,0.3-212.5c0.1-7.7,3.3-16.4,7.7-22.9c7.1-10.4,20.9-13.3,33-9.3c11.8,3.9,20.2,14.8,20.9,27.4
	c0.2,4.1,0.2,8.3,0.2,12.5c0,55.5,0,111.1,0,166.7C454.1,455.4,454.1,458.4,454.1,462.2z"/>
</svg>
