<?xml version="1.0" encoding="utf-8"?>
<!-- Generator: Adobe Illustrator 24.0.2, SVG Export Plug-In . SVG Version: 6.00 Build 0)  -->
<svg version="1.1" id="Capa_1" xmlns="http://www.w3.org/2000/svg" xmlns:xlink="http://www.w3.org/1999/xlink" x="0px" y="0px"
	 viewBox="0 0 900 900" style="enable-background:new 0 0 900 900;" xml:space="preserve">
<style type="text/css">
	.st0{fill:#FFFFFF;}
</style>
<path class="st0" d="M770.9,856.2c-220.4,0-440.8,0-661.2,0c-1.2-0.4-2.3-1-3.5-1.3c-33.6-7.2-55.8-33.9-55.8-68.3
	c-0.1-183.3-0.1-366.6,0-549.9c0-39.1,30-68.7,69-69.1c16.8-0.2,33.5,0,50.3,0c6.8,0,13.6,0,20.3,0c0.8-4.9,1.3-8.9,2.1-12.9
	c4.5-22.7,11.7-44.2,27.9-61.4c19.4-20.6,47.3-23.3,68.3-5.8c7.1,5.9,13,13.5,18,21.3c11.2,17.6,15.6,37.6,18.6,58.2
	c16.2,0,32.1,0,47.9,0c0.7-4.4,1.3-8.4,2-12.4c4.5-22.7,11.7-44.2,27.9-61.4c19.4-20.6,47.3-23.3,68.3-5.7c7.1,5.9,13,13.5,18,21.3
	c11.2,17.6,15.6,37.6,18.6,58.2c16.2,0,32.1,0,47.9,0c0.7-4.4,1.3-8.5,2-12.4c4.5-22.7,11.7-44.2,27.9-61.4
	c19.4-20.6,47.3-23.3,68.3-5.7c7.1,5.9,13,13.5,18,21.3c11.2,17.6,15.6,37.7,18.6,58.7c3,0,5.7,0,8.5,0c20.8,0,41.6-0.2,62.5,0.1
	c21.8,0.2,39.7,8.9,53.7,25.7c8.2,9.9,11.8,21.6,15.1,33.6c0,189.9,0,379.8,0,569.8c-4.6,10.6-7.9,22-14,31.6
	C806,844.6,789.1,851.9,770.9,856.2z M95.9,397.7c0,2.6,0,4.6,0,6.6c0,126.4,0,252.9,0,379.3c0,18.3,9.1,26.9,28.2,26.9
	c210.7,0,421.5,0,632.2,0c19.6,0,28.2-8.6,28.2-28.4c0-125.4,0-250.9,0-376.3c0-2.7,0-5.3,0-8.1C554.7,397.7,325.9,397.7,95.9,397.7
	z M96,351.5c230,0,459,0,688.5,0c0-39,0.3-77.6-0.2-116.1c-0.1-11.9-8.8-21.3-20.5-21.7c-24.3-0.8-48.6-0.2-73.3-0.2
	c-0.3,1.6-0.4,2.8-0.6,4c-3.5,23-9.7,45.1-24.2,64c-10.7,13.9-24.1,23.1-42.4,23.2c-11.7,0-21.4-8.2-22.9-19.3
	c-1.7-11.6,5.2-23.3,16.8-25.3c8.9-1.6,13.6-6.6,16.5-13.8c4.3-10.4,7.5-21.2,11.4-32.6c-47,0-92.1,0-137.3,0
	c-0.3,1.3-0.5,2.2-0.6,3.2c-3.4,23.1-9.5,45.1-23.9,64.1c-10.7,14.2-24.3,23.7-42.9,23.7c-12,0-21.8-8.7-22.9-20.1
	c-1.2-12.1,6.6-22.2,18.3-25.4c4.4-1.2,9.4-4.1,11.9-7.8c7.8-11.1,11.3-24,13-37.6c-45.5,0-90.6,0-135.8,0c-0.2,1.3-0.4,2.3-0.6,3.3
	c-3.5,23-9.5,45.1-23.9,64.1c-10.8,14.2-24.4,23.6-43,23.6c-11.9,0-21.7-8.8-22.8-20.2c-1.1-12.1,6.7-22.2,18.4-25.3
	c4.2-1.1,9.1-3.8,11.5-7.2c8-11.3,11.6-24.4,13.3-38.5c-53.8,0-107.1-0.3-160.4,0.2c-12.3,0.1-21.4,9.9-21.5,22.4
	C95.8,274.3,96,312.6,96,351.5z M236.8,167.3c13.9,0,27.4,0,41.4,0c-2.5-14.7-5.8-28.6-14.9-40.3c-4.7-6-7-6-11.6,0
	C242.6,138.7,239.1,152.6,236.8,167.3z M463.4,167.3c-5.8-14-10.1-26.9-16.3-38.8c-4.3-8.4-8.4-8-13.8-0.2
	c-8,11.6-11.7,24.8-13.6,39C433.5,167.3,446.9,167.3,463.4,167.3z M644,167.4c-1.3-6-1.8-11.4-3.8-16.2c-3.7-8.7-8.1-17.2-12.6-25.5
	c-1.7-3-4.7-4.8-8-1.3c-11.1,12.2-14.7,27.2-17.1,43C616.8,167.4,629.9,167.4,644,167.4z"/>
<path class="st0" d="M770.9,856.2c18.3-4.2,35.1-11.5,45.4-27.8c6.1-9.6,9.4-21,14-31.6c0,19.8,0,39.6,0,59.4
	C810.5,856.2,790.7,856.2,770.9,856.2z"/>
<path class="st0" d="M236.8,167.3c2.3-14.7,5.8-28.6,14.9-40.3c4.7-6,6.9-6,11.6,0c9.1,11.7,12.5,25.6,14.9,40.3
	C264.2,167.3,250.7,167.3,236.8,167.3z"/>
<path class="st0" d="M463.4,167.3c-16.5,0-29.9,0-43.7,0c1.9-14.2,5.6-27.4,13.6-39c5.4-7.8,9.5-8.2,13.8,0.2
	C453.3,140.5,457.6,153.3,463.4,167.3z"/>
<path class="st0" d="M644,167.4c-14.1,0-27.2,0-41.5,0c2.4-15.8,6-30.8,17.1-43c3.3-3.6,6.3-1.8,8,1.3c4.6,8.3,9,16.8,12.6,25.5
	C642.3,155.9,642.7,161.4,644,167.4z"/>
<path class="st0" d="M439.9,764.7c-89.9,0-179.8,0-269.6,0c-18.6,0-27-8.4-27-26.8c0-89.4,0-178.8,0-268.1
	c0-17.9,8.6-26.4,26.6-26.4c180.3,0,360.6,0,540.8,0c18,0,26.6,8.5,26.6,26.4c0,89.6,0,179.3,0,268.9c0,17.4-8.7,26-26.2,26
	C620.7,764.7,530.3,764.7,439.9,764.7z M279.8,718.8c0-31.2,0-61.7,0-92c-30.6,0-60.6,0-90.5,0c0,31,0,61.3,0,92
	C219.5,718.8,249.4,718.8,279.8,718.8z M326.3,718.7c30.7,0,60.6,0,90.7,0c0-30.9,0-61.5,0-92.1c-30.5,0-60.5,0-90.7,0
	C326.3,657.5,326.3,687.9,326.3,718.7z M463.4,718.5c30.7,0,60.8,0,90.8,0c0-30.9,0-61.3,0-92c-30.4,0-60.4,0-90.8,0
	C463.4,657.3,463.4,687.7,463.4,718.5z M691.3,626.6c-30.7,0-60.7,0-90.5,0c0,31.1,0,61.6,0,92c30.5,0,60.3,0,90.5,0
	C691.3,687.9,691.3,657.5,691.3,626.6z M279.8,580.1c0-30.7,0-60.7,0-90.5c-30.6,0-60.6,0-90.5,0c0,30.5,0,60.3,0,90.5
	C219.6,580.1,249.4,580.1,279.8,580.1z M326.3,580c30.8,0,60.6,0,90.6,0c0-30.5,0-60.5,0-90.5c-30.5,0-60.6,0-90.6,0
	C326.3,520,326.3,549.8,326.3,580z M463.6,489.3c0,30.6,0,60.7,0,90.5c30.6,0,60.6,0,90.5,0c0-30.5,0-60.3,0-90.5
	C523.9,489.3,494,489.3,463.6,489.3z M600.5,579.9c30.7,0,60.7,0,90.5,0c0-30.6,0-60.6,0-90.5c-30.5,0-60.3,0-90.5,0
	C600.5,519.7,600.5,549.5,600.5,579.9z"/>
</svg>
