<?xml version="1.0" encoding="utf-8"?>
<!-- Generator: Adobe Illustrator 24.0.2, SVG Export Plug-In . SVG Version: 6.00 Build 0)  -->
<svg version="1.1" id="Capa_1" xmlns="http://www.w3.org/2000/svg" xmlns:xlink="http://www.w3.org/1999/xlink" x="0px" y="0px"
	 viewBox="0 0 900 900" style="enable-background:new 0 0 900 900;" xml:space="preserve">
<style type="text/css">
	.st0{fill:#002A76;}
</style>
<path class="st0" d="M450.4,26.8c17.8,3.4,35.9,5.9,53.4,10.5c46.3,12.3,85.9,36.4,119.5,70.3c37.6,38.1,62,83.5,72.9,136
	c6.8,32.8,6.9,65.8,3.3,99c-8.8,80-35.3,154.3-71.9,225.4c-6.6,12.8-14,25.1-21.5,38.5c16.1,5.7,31.7,11.2,47.3,16.7
	c15.8,5.6,31.5,11,44.2,22.6c18.6,17.1,28.5,38.2,28.9,63.4c0.5,31.4,0.2,62.8,0.1,94.2c0,9-4.5,14.2-11.8,14.1
	c-7.2-0.1-11.3-5.2-11.3-14.4c-0.1-27.5-0.7-55.1,0.1-82.6c1-37.1-15.7-62.5-52-73c-2.9-0.8-5.8-2-7.4-1.1
	c-16.2,15-32.3,29.9-48.5,44.8c-1.1,1-2.5,1.9-3.7,2.8c-7.2,5.1-14,4.8-18.4-0.9c-4.4-5.7-2.7-11.8,4.4-17.8
	c10-8.4,20-16.9,29.8-25.7c4.1-3.7,7.5-8.3,11.8-13.3c-23.7-8.3-46.4-16.2-69-24.3c-8.9-3.2-18.2-6-26.4-10.6
	c-22-12.4-31.4-32.3-31.5-57c0-11.3,0-22.5,0-35.2c-41.8,15.1-82.8,15.3-124.9-0.1c0,10,0.5,18.9-0.1,27.8
	c-0.7,10.4-0.9,21.3-3.8,31.1c-6.1,20.5-21.3,32.6-41.1,39.5c-26.9,9.3-53.7,18.9-82.1,28.9c6.8,7.3,12.6,14.4,19.3,20.5
	c37.8,34.7,82.9,53.7,133.3,60.4c45.6,6.1,90.2,1.6,133.3-15c2.4-0.9,4.8-1.8,7.3-2.5c7.7-2.4,14.3,0.5,16.4,7
	c2,6.2-1.4,12.1-8.7,15c-44.2,17.4-90,24.6-137.4,20.4c-53-4.7-101.5-21.4-143.4-54.4c-15.8-12.5-29.5-27.7-44.9-42.5
	c-18.9,5.5-38.5,13.2-49.9,33.6c-6.3,11.1-8.6,23-8.6,35.5c-0.1,28.3,0,56.6,0,84.9c0,2.6,0.1,5.2-0.2,7.7
	c-0.7,6.2-4.4,9.8-10.5,10.4c-6.3,0.5-10.3-2.9-12-8.7c-0.7-2.4-0.5-5.1-0.5-7.7c0-28.8,0-57.7,0-86.5c0-42.5,21.5-72.8,61.8-87.1
	c15.9-5.7,31.9-11.3,47.9-16.9c2.6-0.9,5.1-2.1,7.7-3.1c-9.4-20.5-19-40.4-27.5-60.7c-20.3-48.5-35.3-98.6-44.1-150.4
	c-7.1-41.9-11.7-84.2-6.8-126.7c7.4-63.9,35.4-117.5,83.7-160.2c5.8-5.1,11.9-9.9,18.2-14.3c11.5-8.1,22.2-16.7,31.5-27.7
	c19.8-23.2,46.8-34.4,76.6-39c2-0.3,3.8-1,5.7-1.6C409.2,26.8,429.8,26.8,450.4,26.8z M583,598.4c1.3-1.8,2.4-3.2,3.3-4.7
	c47.9-81.5,82.1-167.8,90.9-262.7c3.7-40.3,0.5-80.1-14.1-118.3c-23.6-61.8-65-107.6-124.2-137.2c-35.9-18-74.2-24.9-114-25.6
	c-24.6-0.4-48.8,0.9-71.6,11.6c-18.6,8.8-34.3,21-42.5,40.5c-15.5,36.5,8.3,62.6,39.4,61.1c32.9-1.6,65.9-0.4,98.8-0.3
	c2.6,0,5.2-0.2,7.7,0.3c6.4,1.3,10.1,5.5,9.8,11.9c-0.4,6.3-4.1,10.4-10.8,10.9c-2.6,0.2-5.1,0.2-7.7,0.2c-33.2,0-66.4,0.3-99.6-0.1
	c-39.5-0.4-66,27.8-66.8,60.3c-0.3,12.3-0.3,24.7-0.5,37c-0.4,17.2-8.9,25.7-26.1,26.8c-4.3,0.3-8.9,0.6-12.6,2.4
	c-8.8,4.2-12.7,14.2-9.5,22.7c2.7,7.3,10.3,15.5,24.5,12.3c2.1-6.8,5.7-12.3,14.1-11c8.5,1.4,9.5,8.2,10.1,15.1
	c0.8,8.7,1,17.5,2.8,26c16.4,77.5,89.4,129.4,169.3,117.3c56.5-8.6,106.7-52.6,120.4-108c3.2-13.1,3.7-26.9,6.3-40.2
	c0.7-3.6,4.1-8,7.4-9.4c3-1.3,8,0.1,11.2,2c2.5,1.5,3.6,5.4,5.6,8.7c1.6,0,3.6,0.1,5.6,0c9.4-0.3,16.8-6.5,18.5-15.5
	c1.7-8.6-3.2-18-11.6-21.2c-3-1.1-6.5-1.3-9.8-1.5c-19.2-1-27.2-9.3-27.4-28.6c-0.1-9.5,0-19,0-28.6c-0.2-27.3-11.4-48.1-36.2-60.6
	c-11.8-5.9-24.7-6.1-37.6-6.3c-8-0.1-12.7-4.7-12.7-11.5c0-6.7,4.9-11.8,12.7-11.6c10.2,0.3,20.7,0.2,30.6,2.5
	c39.4,9.2,65.8,42.6,66.6,83c0.3,12.5,0,25.1,0,37.5c29.8,3.2,44,13.8,48.5,35.6c4.1,19.9-5,35.8-27.3,48.4
	c4.5,12.3,9.7,24.3,13.4,36.7c6.3,21.5-0.9,39.5-18.1,48.1c-15,7.5-29.5,4.2-46.4-11.4c-0.5,1.1-1,2.4-1.7,3.5
	c-13.8,19.6-31,35.6-51.2,48.4c-2,1.3-3.5,4.9-3.6,7.5c-0.3,14.4-0.2,28.8-0.1,43.2c0.1,19.4,8.9,31.9,27.2,38.5
	C556.5,589.1,569.4,593.6,583,598.4z M257.5,285.7c0-11.6-0.2-23.4,0-35.2c0.5-29,11.9-52.8,35-70.5c3.6-2.8,7.5-5.1,10.5-7
	c-5.5-8.6-11.9-16.3-15.5-25.1c-3.6-8.6-4.6-18.4-6.8-28c-39.7,31.8-66.5,72.1-79,121.6c-11.6,46.1-7.8,92.5-1,138.6
	c9,61,27.8,119.3,52.5,175.7c6.4,14.7,13.8,29,20.9,43.8c16.6-6,32.3-10.8,47.4-17.2c14.5-6.1,22.3-17.8,22.6-33.8
	c0.3-14.9-0.2-29.8,0.3-44.8c0.1-5.2-2.1-7.6-5.9-10.5c-11.9-9.4-23.7-18.9-34.8-29.1c-6.5-6-11.5-13.5-17.6-20.7
	c-1.1,1.4-1.7,2.2-2.4,3c-10.4,10.8-23,14.5-37.2,10.2c-14.3-4.3-23.4-14.4-25.1-29.2c-0.9-7.9,0.3-16.5,2.6-24.2
	c3.3-11.4,8.4-22.3,12.7-33.5c-21.4-11.4-31.1-27.5-27.9-46.5C212.4,300.8,225.7,290.4,257.5,285.7z M259.2,384.8
	c-1.5,0-2.9,0-4.4,0c-3.4,11.4-7.5,22.7-10,34.3c-2,9.3,3.7,15.7,12,15.8c8.4,0.1,14.6-6.2,12.7-15.3
	C267.1,407.8,262.7,396.3,259.2,384.8z M606.1,385c-1,0-2,0.1-3.1,0.1c-5.9,11.3-11.3,22.7-12.1,35.8c-0.5,8.7,5.3,14.4,13.5,14
	c7.6-0.4,13.3-6.5,11.6-14.8C613.5,408.2,609.5,396.6,606.1,385z"/>
<path class="st0" d="M431.1,433.8c-16.9-0.7-31.3-3.7-43.4-13.5c-6.6-5.4-8-11.6-3.7-17.3c4.2-5.6,10.5-6,17.6-1.3
	c17.6,11.8,39.6,11.7,57.7-0.3c6.7-4.4,13-4,17.1,1.2c4.4,5.5,3.2,12-3.3,17.4C460.4,430.6,445.2,433.3,431.1,433.8z"/>
<path class="st0" d="M370,268.4c-0.9,9.7-10.5,11-17.6,14.8c-5.4,2.9-11,4.6-16.4-0.1c-5.5-4.9-5.4-13.8,1.1-17.9
	c5.8-3.6,12.2-6.5,18.7-8.7C362.7,254.1,369.9,260,370,268.4z"/>
<path class="st0" d="M501.5,253.8c9,4.9,17.1,8.3,24,13.3c4.3,3,4.7,9.4,1,13.1c-2.9,3-8.5,5.7-12.2,5c-6.5-1.4-12.8-5-18.7-8.5
	c-4.6-2.7-6.8-7.8-4.2-12.6C493.6,260.2,497.8,257.5,501.5,253.8z"/>
<path class="st0" d="M344.2,318c0-1.3-0.1-2.6,0-3.9c0.5-8.6,4.7-13.6,11.5-13.9c7-0.3,11.7,5,12.2,13.9c0.2,3.3,0.2,6.7-0.2,10
	c-0.8,6.6-4,11.1-11.2,11.5c-6.5,0.3-11.1-4-12.1-11.4c-0.3-2,0-4.1,0-6.2C344.2,318,344.2,318,344.2,318z"/>
<path class="st0" d="M516.8,318.1c-0.4,3-0.6,6.1-1.3,9.1c-1.5,5.7-5.5,8.6-11.4,8.4c-5.9-0.2-9.8-3.4-10.6-9.2
	c-0.7-4.8-0.8-9.7-0.5-14.6c0.5-6.7,4.2-11,11.2-11.5c6.3-0.4,11.1,4.3,12,11.6c0.3,2,0,4.1,0,6.2
	C516.5,318.1,516.7,318.1,516.8,318.1z"/>
</svg>
