<?xml version="1.0" encoding="utf-8"?>
<!-- Generator: Adobe Illustrator 24.0.2, SVG Export Plug-In . SVG Version: 6.00 Build 0)  -->
<svg version="1.1" id="Capa_1" xmlns="http://www.w3.org/2000/svg" xmlns:xlink="http://www.w3.org/1999/xlink" x="0px" y="0px"
	 viewBox="0 0 900 900" style="enable-background:new 0 0 900 900;" xml:space="preserve">
<style type="text/css">
	.st0{fill:#53D3EE;}
	.st1{fill:#FFFFFF;}
</style>
<path class="st0" d="M150.5,804.4c-5.8-3.7-7.6-9-7.5-15.9c0.2-44.4,0.1-88.8,0.1-133.2c0.1-40.5,21.8-70.5,60.4-83
	c23.9-7.8,47.9-15,72-22.2c4.7-1.4,7.5-3.2,8.1-8.7c1-9.2,7.1-15.1,15.1-19.1c14-7,28-14.2,42.1-21c4.3-2.1,6.5-4.3,6.2-9.5
	c-0.5-9,2.3-19-0.9-26.6c-3.1-7.4-11.9-12.5-18.3-18.5c-26.6-25.1-43.2-55.7-49.8-91.6c-0.9-4.9-2.5-6.6-7.6-6.7
	c-29.4-0.3-42.8-21.9-43.3-40.2c-0.4-14.3,5.9-25.7,17.4-33.6c5.1-3.5,6.6-7,6.5-12.7c-0.3-21.4-0.3-42.9-0.1-64.4
	c0.2-19.9,3-39.2,14-56.5c0.9-1.5,0-5-1.2-6.8c-4.5-7.2-9.8-13.8-13.9-21.2c-3.9-7-1.3-13.5,6.1-16.4c38.6-15.3,76.8-31.8,116-45.4
	c40.8-14.1,83.3-16.9,126.1-10.1c16.4,2.6,31.6,8.6,45.7,17.5c2.8,1.8,6.3,3.2,9.5,3.3c44.5,1.8,80,37.6,80.5,82.3
	c0.5,39.4,0.2,78.8,0,118.3c0,4.9,0.9,8,5.5,10.8c14.7,9.2,21.2,27.1,17,44.3c-3.8,15.4-19.1,28.5-35.3,30.3c-1,0.1-2,0.4-3,0.2
	c-8.2-1-10.6,3.1-12.2,10.8c-8,40.5-28.9,73.3-61.5,98.5c-4.9,3.8-7,7.6-6.5,13.7c0.5,6.7,0.4,13.5,0,20.2c-0.3,5.1,1.3,8,6.1,10.3
	c13.8,6.4,27.2,13.5,40.8,20.2c9.3,4.6,15.4,11.3,17.2,22c0.4,2.4,4,5.3,6.7,6.1c22.7,7.3,45.6,14.2,68.4,21.2
	c42.9,13.1,64.6,42.5,64.7,87.5c0,43.4-0.1,86.8,0.1,130.2c0,6.8-1.7,12.2-7.5,15.9c-2.5,0-5,0-7.5,0c-6.2-3.5-7.8-8.8-7.7-15.7
	c0.2-43.7,0.1-87.3,0.1-131c0-33.8-15.5-54.8-47.7-64.8c-19.7-6.1-39.5-12.2-59.2-18.3c-21.6-6.7-21.6-6.7-33.8,12.1
	c-0.3,0.4-0.3,0.9-0.9,2.9c4.1,3.7,8.9,7.7,13.3,12.1c15.2,15.1,17.5,28.9,7.9,48c-23.9,47.9-47.8,95.8-71.9,143.6
	c-2,4.1-5.5,7.5-8.2,11.2c-3,0-6,0-9,0c-7.8-8.1-8.2-10.9-2.9-21.6c23.8-47.7,47.7-95.3,71.5-143c5.3-10.5,4.6-14-3.7-22.4
	c-5.8-5.8-11.7-11.6-17.4-17.5c-7.5-7.7-7.9-12.1-1.5-20.8c7-9.4,14-18.8,21.1-28.1c2.1-2.8,4-5.9-0.3-8.1
	c-14-7.2-28.2-14.1-42.7-21.3c-0.8,2.2-1.4,3.6-1.8,5c-25.8,88.3-51.6,176.6-77.6,264.8c-1.4,4.7-5,8.7-7.6,13c-3,0-6,0-9,0
	c-2.6-4.3-6.1-8.4-7.6-13c-7.3-23.5-14-47.2-20.9-70.8c-4.2-14.3-8.5-28.6-12.5-43c-2-7.1,1.1-13.3,7.1-15.1
	c6.4-1.9,11.8,1.3,14.4,8.4c0.6,1.6,1,3.3,1.5,5c6.5,22.4,13,44.9,19.6,67.3c0.6,2.2,1.6,4.3,3.2,8.2c14.4-49.5,28.3-97.1,42-144.2
	c-14.6,1.8-28.6,5-42.5,5c-13.9,0-27.8-3.2-42.1-5c1.4,5.1,3.3,10.2,4.2,15.5c1.1,6.2-1.7,10.8-7.6,12.9c-5.8,2-10.2-0.4-13.2-5.5
	c-1.1-1.9-1.8-4.1-2.4-6.3c-9.1-31-18.1-62.1-27.1-93.1c-0.9-3-2-6-3-9.3c-13.9,6.9-26.9,13.6-40.2,19.9c-5.5,2.6-6.3,5.3-2.5,10.2
	c7.5,9.6,14.8,19.4,22,29.3c4.7,6.4,4.3,11.7-1.2,17.4c-6,6.3-12.3,12.4-18.5,18.6c-9.1,9.1-9.6,12.2-3.9,23.6
	c23.7,47.4,47.5,94.9,71.2,142.3c5.4,10.8,5,13.4-2.9,21.6c-3,0-6,0-9,0c-6.5-10.3-13.1-20.7-20.3-32.2c0,6.5-0.2,12,0.1,17.3
	c0.3,6.2-2.4,10.8-6.7,14.8c-42.9,0-85.8,0-128.8,0c-5.6-3.8-7.6-9.1-7.5-15.9c0.3-19.9,0.1-39.9,0.1-59.8
	c0-16.2,2.5-18.7,18.5-18.7c13.6,0,27.3,0,41.5,0c0-4.9-0.3-8.9,0.1-12.8c0.7-7.1,5.3-11.3,11.7-11c6.9,0.4,10.2,4.5,10.7,11
	c0.3,4.1,0.4,8.3,0.6,12.2c10.1,0,19.4,0,29.4,0c-1.5-3.2-2.5-5.6-3.7-8c-9-18-18.1-36-27-54.1c-8-16.3-5.6-30.9,7.2-43.7
	c5.1-5.1,10.7-9.6,16.1-14.5c-4.7-6.3-8.6-10.9-11.8-15.9c-2.7-4.2-5.5-4.4-10-3c-24.9,7.9-50,15.1-74.8,23.2
	c-7.9,2.6-15.8,6.4-22.5,11.3c-17.2,12.6-23.6,30.8-23.6,51.6c0,44.1-0.1,88.3,0.1,132.4c0,6.8-1.6,12.2-7.7,15.7
	C155.5,804.4,153,804.4,150.5,804.4z M274.6,265.2c2.1,0.1,4.3,0.3,6.5,0.3c13.9,0.1,17.8-3.7,17.8-17.6c0-12-0.2-24,0.1-35.9
	c0.2-7.7,4.7-12.4,11.2-12.5c6.6-0.1,11.3,4.3,11.4,12c0.2,15.2,0.4,30.4-0.5,45.6c-0.9,16.2-14.4,29.1-30.6,30.6
	c-8.2,0.7-16.5,0.5-24.6,1.5c-10.5,1.3-17.3,11-15.6,20.9c1.8,10.2,11,16.9,21.3,15.2c1.5-0.3,3.3-1.9,4-3.3
	c2.4-5.8,6.5-8.9,12.8-7.9c6.4,1,8.9,5.6,9.4,11.7c0.8,9.2,1.1,18.5,2.9,27.5c15.2,75.8,86.8,126.2,163.6,114.2
	c54.7-8.5,92-40.1,113.2-91c6.9-16.6,8.7-34.1,10-51.8c0.4-6,3.8-9.8,9.7-10.6c5.6-0.7,9.4,2.1,11.9,7.1c0.8,1.7,2.6,3.7,4.2,4
	c8.7,1.5,18.4-5,20.9-13.4c3.5-11.8-4.5-22.4-18-23.4c-8.5-0.6-17.1,0.2-25.4-1.2c-17.1-3-27.9-18.2-27.5-39
	c0.5-27.4-8.5-51.2-24.4-73c-3-4.1-5.8-4.7-10.6-3.6c-26,5.8-51.9,12-78.1,16.2c-32.5,5.2-65.1,4.3-97.3-3
	c-24.8-5.6-47.8-15.4-68-30.9C274.1,166.2,268.2,232.1,274.6,265.2z M276.6,113.1c13.1,18,29.1,29.7,47.3,38.2
	c43.1,20.1,88.5,20.1,134.1,12.7c25.5-4.1,50.4-11.2,75.5-17.4c6.2-1.5,11.3-0.7,14.6,4.3c9.5,14.2,19.5,28.3,27.3,43.4
	c9,17.5,11.2,37,10.7,56.7c-0.2,8.5,3.8,13.5,11,14.3c4.4,0.5,8.8,0.1,13.5,0.1c0.3-1.8,0.6-3,0.6-4.2c0-38.2,0.3-76.3-0.1-114.5
	c-0.2-23.4-10-41.8-30.4-54c-2.5-1.5-5.3-2.6-8.9-4.3c0.5,2.5,0.8,3.5,1,4.4c1.6,7-0.8,12.9-6.6,14.6c-6.4,2-11.5-0.3-14.2-6.4
	c-8.9-20.2-26.6-29.1-46.1-34.8c-33.4-9.9-67.2-6.5-100.7-0.7C359.8,73.4,321.2,99.8,276.6,113.1z M516.3,477.5
	c-0.9-0.3-1.7-0.7-2.6-1c-47.7,21.3-95.4,21-144.4-0.6c0.6,11.7-0.5,22.2,1.9,31.9c5.2,21.5,12,42.6,18.6,63.7
	c1,3.1,3.8,6.5,6.7,7.8c30.5,13.9,61.2,13.9,91.7,0c2.9-1.3,5.7-4.8,6.7-7.8c6-19,12.1-38,16.7-57.3
	C514.5,502.2,514.8,489.7,516.3,477.5z M226.2,732.7c0,16.8,0,32.9,0,48.8c32.4,0,64.2,0,96.2,0c0-16.5,0-32.5,0-48.8
	c-12.4,0-24.2,0-36.3,0c-1.3,6.3-4.2,11-10.9,11.5c-8.2,0.6-10.7-5.7-12.9-11.6C250,732.7,238.4,732.7,226.2,732.7z"/>
<path class="st1" d="M339.1,804.4c4.3-4,7-8.6,6.7-14.8c-0.3-5.4-0.1-10.8-0.1-17.3c7.3,11.5,13.8,21.8,20.3,32.2
	C357.1,804.4,348.1,804.4,339.1,804.4z"/>
<path class="st0" d="M629.3,715.9c0-6.6-0.2-12,0-17.5c0.3-8,4.2-12.3,10.9-12.4c6.9-0.1,11.3,4.6,11.6,12.7c0.2,5.4,0,10.8,0,17.2
	c6.1,0,11.5-0.1,16.9,0c8,0.2,13.1,4.7,13,11.3c-0.1,6.6-5.3,10.9-13.3,11.1c-5.2,0.1-10.4,0-16.5,0c0,5.9,0.1,11.3,0,16.7
	c-0.2,8.1-4.6,13.1-11.2,13.2c-6.7,0.1-11.1-4.8-11.3-12.9c-0.2-5.4,0-10.8,0-17c-6,0-11.2,0.1-16.3,0c-8.7-0.1-13.6-4.4-13.5-11.5
	c0.1-6.9,4.8-10.8,13.1-11C617.8,715.9,623,715.9,629.3,715.9z"/>
<path class="st0" d="M447.1,396c-16.7,0.5-32.6-2-46.2-12.9c-6.3-5.1-7.5-11.5-3.3-16.9c4-5.1,10-5.5,16.6-1.3
	c18.9,12,37.7,12,56.5-0.1c6.5-4.2,12.5-3.6,16.5,1.6c4,5.3,2.9,11.4-3,16.3C473.6,391.6,460.9,395.3,447.1,396z"/>
<path class="st0" d="M370.5,264c-4.5,0-9,0.3-13.4-0.1c-6.2-0.5-9.5-4.7-9.8-10.4c-0.4-5.4,2.6-10.5,8.2-10.9
	c9.9-0.9,19.9-0.9,29.7-0.1c5.8,0.5,8.8,5.5,8.3,11.5c-0.5,6-4.1,9.6-10.1,10C379,264.3,374.8,264,370.5,264
	C370.5,264,370.5,264,370.5,264z"/>
<path class="st0" d="M514,264c-4.2,0-8.5,0.3-12.7-0.1c-6.1-0.5-9.4-4.3-9.8-10.3c-0.4-6.1,2.8-10.8,8.6-11.3
	c9.6-0.8,19.4-0.8,29,0.1c5.8,0.5,9,5.6,8.5,11.4c-0.5,5.7-3.9,9.7-10.2,10.1C523,264.2,518.5,264,514,264C514,264,514,264,514,264z
	"/>
<path class="st0" d="M358.5,294c0.5-2.9,0.1-6.7,1.7-8.6c2.9-3.2,7.2-7.3,10.7-7.2c3.5,0.2,8.2,4.5,9.8,8.1
	c1.8,4.3,1.2,9.8,0.9,14.7c-0.5,6.5-4,10.6-10.9,10.9c-6.4,0.2-10.7-4-11.6-11.2c-0.3-2.2,0-4.5,0-6.7
	C358.8,294.1,358.7,294,358.5,294z"/>
<path class="st0" d="M526.3,296.1c-0.4,2.5-0.6,5.8-1.6,8.8c-1.7,5.2-5.7,7.4-11,7.1c-5.3-0.3-9.2-3-9.9-8.5
	c-0.6-5.1-0.7-10.4-0.4-15.6c0.5-6.4,4.8-10,10.9-10.1c5.8-0.1,9.8,3.4,10.9,9.4C525.9,289.9,526,292.6,526.3,296.1z"/>
</svg>
